<svg xmlns="http://www.w3.org/2000/svg" xmlns:xlink="http://www.w3.org/1999/xlink" viewBox="0 0 369 621" width="369" height="621" preserveAspectRatio="xMidYMid meet" style="width: 100%; height: 100%; transform: translate3d(0px, 0px, 0px);"><defs><Path id="__lottie_element_65"><rect width="369" height="621" x="0" y="0"></rect></Path><mask id="__lottie_element_66" mask-type="alpha"><g class="ai" clip-path="url(#__lottie_element_67)" style="display: block;" transform="matrix(2.859999895095825,0,0,2.859999895095825,-669.7799682617188,-387.77996826171875)" opacity="1"><image width="596px" height="596px" preserveAspectRatio="xMidYMid slice" xlink:href="images/img_0.png"></image></g></mask><Path id="__lottie_element_67"><path fill="#ffffff" clip-rule="nonzero" d=" M375.9169921875,130.86700439453125 C375.9169921875,130.86700439453125 215.48199462890625,130.86700439453125 215.48199462890625,130.86700439453125 C215.48199462890625,130.86700439453125 215.48199462890625,351.135986328125 215.48199462890625,351.135986328125 C215.48199462890625,351.135986328125 375.9169921875,351.135986328125 375.9169921875,351.135986328125 C375.9169921875,351.135986328125 375.9169921875,130.86700439453125 375.9169921875,130.86700439453125" fill-opacity="1"></path></Path><filter id="__lottie_element_71" filterUnits="objectBoundingBox" x="-100%" y="-100%" width="300%" height="300%"><feGaussianBlur stdDeviation="7.83 7.83" edgeMode="duplicate"></feGaussianBlur></filter><mask id="__lottie_element_72" mask-type="alpha"><g class="ai" clip-path="url(#__lottie_element_73)" style="display: block;" transform="matrix(2.859999895095825,0,0,2.859999895095825,-669.7799682617188,-387.77996826171875)" opacity="1"><image width="596px" height="596px" preserveAspectRatio="xMidYMid slice" xlink:href="images/img_0.png"></image></g></mask><Path id="__lottie_element_73"><path fill="#ffffff" clip-rule="nonzero" d=" M390.7449951171875,125.27300262451172 C390.7449951171875,125.27300262451172 212.68499755859375,125.27300262451172 212.68499755859375,125.27300262451172 C212.68499755859375,125.27300262451172 212.68499755859375,354.3890075683594 212.68499755859375,354.3890075683594 C212.68499755859375,354.3890075683594 390.7449951171875,354.3890075683594 390.7449951171875,354.3890075683594 C390.7449951171875,354.3890075683594 390.7449951171875,125.27300262451172 390.7449951171875,125.27300262451172" fill-opacity="1"></path></Path><filter id="__lottie_element_77" filterUnits="objectBoundingBox" x="-100%" y="-100%" width="300%" height="300%"><feGaussianBlur stdDeviation="10.2 10.2" edgeMode="duplicate"></feGaussianBlur></filter><mask id="__lottie_element_78" mask-type="alpha"><g transform="matrix(1,0,0,1,182.5,464.5)" opacity="1" style="display: block;"><g opacity="1" transform="matrix(1,0,0,1,0,0)"><path fill="rgb(231,89,89)" fill-opacity="1" d=" M408,-476 C408,-476 -374,-476 -374,-476 C-374,-476 -374,350 -374,350 C-374,350 -192,344 -192,344 C-192,344 130,346 130,346 C130,346 246,440 246,440 C246,440 408,440 408,440 C408,440 408,-476 408,-476z" style="mix-blend-mode: multiply;"></path></g></g></mask><Path id="__lottie_element_82"><path fill="#ffffff" clip-rule="nonzero" d=" M377.0429992675781,130.16799926757812 C377.0429992675781,130.16799926757812 212.68499755859375,130.16799926757812 212.68499755859375,130.16799926757812 C212.68499755859375,130.16799926757812 212.68499755859375,357.43499755859375 212.68499755859375,357.43499755859375 C212.68499755859375,357.43499755859375 377.0429992675781,357.43499755859375 377.0429992675781,357.43499755859375 C377.0429992675781,357.43499755859375 377.0429992675781,130.16799926757812 377.0429992675781,130.16799926757812"></path></Path><mask id="__lottie_element_84" mask-type="alpha"><g style="display: block;" transform="matrix(1,0,0,1,182.5,464.5)" opacity="1"><g opacity="1" transform="matrix(1,0,0,1,0,0)"><path stroke-linecap="butt" stroke-linejoin="miter" fill-opacity="0" stroke-miterlimit="4" stroke="rgb(255,255,255)" stroke-opacity="1" stroke-width="118" d=" M4,-318 C4,-318 4,-402.13800048828125 4,-443.5360107421875"></path></g></g></mask><mask id="__lottie_element_90" mask-type="alpha"><g style="display: block;" transform="matrix(1,0,0,1,182.5,464.5)" opacity="1"><g opacity="1" transform="matrix(1,0,0,1,0,0)"><path stroke-linecap="butt" stroke-linejoin="miter" fill-opacity="0" stroke-miterlimit="4" stroke="rgb(251,243,200)" stroke-opacity="1" stroke-width="51" d=" M-65.5,-246 C-65.5,-246 -1.5,-318 -1.5,-318 C-1.5,-318 72.33300018310547,-242.66700744628906 109.5,-211"></path></g><g opacity="1" transform="matrix(1,0,0,1,0,0)"><path stroke-linecap="butt" stroke-linejoin="miter" fill-opacity="0" stroke-miterlimit="4" stroke="rgb(251,243,200)" stroke-opacity="1" stroke-width="51" d=" M1774,-374"></path></g></g></mask><mask id="__lottie_element_96" mask-type="alpha"><g style="display: block;" transform="matrix(1,0,0,1,182.5,464.5)" opacity="1"><g opacity="1" transform="matrix(1,0,0,1,0,0)"><path stroke-linecap="butt" stroke-linejoin="miter" fill-opacity="0" stroke-miterlimit="4" stroke="rgb(255,255,255)" stroke-opacity="1" stroke-width="39" d=" M-157.125,-78.375 C-157.125,-78.375 -145.5,2 -146,1 C-139,85.5 -2.5,121 -2.5,121 C-2.9609999656677246,121.46099853515625 116.37699890136719,86.12100219726562 138.26499938964844,15.770999908447266 C140.1300048828125,9.776000022888184 -112.5,-201.5 -112.5,-201.5"></path></g></g></mask><Path id="__lottie_element_100"><path d="M0,0 L1920,0 L1920,1080 L0,1080z"></path></Path><mask id="__lottie_element_109" mask-type="alpha"><g style="display: block;" transform="matrix(1,0,0,1,182.5,464.5)" opacity="1"><g opacity="1" transform="matrix(1,0,0,1,0,0)"><path stroke-linecap="butt" stroke-linejoin="miter" fill-opacity="0" stroke-miterlimit="4" stroke="rgb(255,255,255)" stroke-opacity="1" stroke-width="54" d=" M149,-14 C149,-14 149,-348 149,-348"></path></g></g></mask><mask id="__lottie_element_115" mask-type="alpha"><g style="display: block;" transform="matrix(1,0,0,1,182.5,464.5)" opacity="1"><g opacity="1" transform="matrix(1,0,0,1,0,0)"><path stroke-linecap="butt" stroke-linejoin="miter" fill-opacity="0" stroke-miterlimit="4" stroke="rgb(255,255,255)" stroke-opacity="1" stroke-width="386" d=" M-164.5,-154 C-164.5,-154 164,-154 164,-154"></path></g></g></mask><mask id="__lottie_element_121" mask-type="alpha"><g style="display: block;" transform="matrix(1,0,0,1,181,460.5)" opacity="1"><g opacity="1" transform="matrix(1,0,0,1,0,0)"><path stroke-linecap="butt" stroke-linejoin="miter" fill-opacity="0" stroke-miterlimit="4" stroke="rgb(255,255,255)" stroke-opacity="1" stroke-width="30" d=" M-143.5,-12.5 C-143.5,-12.5 -143.5,-334.5 -143.5,-334.5"></path></g></g></mask></defs><g clip-path="url(#__lottie_element_65)"><g mask="url(#__lottie_element_121)" style="display: block;"><g transform="matrix(2.859999895095825,0,0,2.859999895095825,-669.7799682617188,-387.77996826171875)" opacity="1"><g opacity="1" transform="matrix(1,0,0,1,247.23199462890625,234.8990020751953)"><path fill="rgb(255,255,255)" fill-opacity="1" d=" M5.105000019073486,-45.95000076293945 C5.105000019073486,-45.95000076293945 -5.105000019073486,-54.82500076293945 -5.105000019073486,-54.82500076293945 C-5.105000019073486,-54.82500076293945 -5.105000019073486,54.82500076293945 -5.105000019073486,54.82500076293945 C-5.105000019073486,54.82500076293945 5.105000019073486,45.95000076293945 5.105000019073486,45.95000076293945 C5.105000019073486,45.95000076293945 5.105000019073486,-32.41999816894531 5.105000019073486,-32.41999816894531 C5.105000019073486,-32.41999816894531 5.105000019073486,-45.95000076293945 5.105000019073486,-45.95000076293945z"></path></g></g></g><g mask="url(#__lottie_element_115)" style="display: block;"><g transform="matrix(2.859999895095825,0,0,2.859999895095825,-669.7799682617188,-387.77996826171875)" opacity="1"><g opacity="1" transform="matrix(1,0,0,1,297.3699951171875,234.86099243164062)"><path fill="rgb(255,255,255)" fill-opacity="1" d=" M-47.48099899291992,-48.00899887084961 C-47.48099899291992,-48.00899887084961 -46.60599899291992,-33.95500183105469 -46.60599899291992,-33.95500183105469 C-46.60599899291992,-33.95500183105469 55.17300033569336,54.652000427246094 55.17300033569336,54.652000427246094 C55.17300033569336,54.652000427246094 55.20600128173828,40.959999084472656 55.20600128173828,40.959999084472656 C55.20600128173828,40.959999084472656 46.60599899291992,33.78200149536133 46.60599899291992,33.78200149536133 C46.60599899291992,33.78200149536133 -47.48099899291992,-48.00899887084961 -47.48099899291992,-48.00899887084961z"></path></g></g></g><g mask="url(#__lottie_element_109)" style="display: block;"><g transform="matrix(2.859999895095825,0,0,2.859999895095825,-669.7799682617188,-387.77996826171875)" opacity="1"><g opacity="1" transform="matrix(1,0,0,1,347.5530090332031,234.8990020751953)"><path fill="rgb(255,255,255)" fill-opacity="1" d=" M5.150000095367432,-54.82500076293945 C5.150000095367432,-54.82500076293945 -5.061999797821045,-45.95000076293945 -5.061999797821045,-45.95000076293945 C-5.061999797821045,-45.95000076293945 -5.061999797821045,32.42100143432617 -5.061999797821045,32.42100143432617 C-5.061999797821045,32.42100143432617 -5.150000095367432,32.345001220703125 -5.150000095367432,32.345001220703125 C-5.150000095367432,32.345001220703125 -5.150000095367432,45.87300109863281 -5.150000095367432,45.87300109863281 C-5.150000095367432,45.87300109863281 5.150000095367432,54.82500076293945 5.150000095367432,54.82500076293945 C5.150000095367432,54.82500076293945 5.150000095367432,-54.82500076293945 5.150000095367432,-54.82500076293945z"></path></g></g></g><g mask="url(#__lottie_element_96)" style="display: block;"><g clip-path="url(#__lottie_element_100)" transform="matrix(1,0,0,1,-777.5,-75.5)" opacity="1"><g style="display: block;" transform="matrix(2.859999895095825,0,0,2.859999895095825,107.72003173828125,-312.27996826171875)" opacity="1"><g opacity="1" transform="matrix(1,0,0,1,307.05999755859375,262.5369873046875)"><path fill="rgb(255,255,255)" fill-opacity="1" d=" M35.43199920654297,30.665000915527344 C35.43199920654297,30.665000915527344 35.43199920654297,30.665000915527344 35.43199920654297,30.665000915527344 C35.43199920654297,30.665000915527344 -45.40599822998047,-39.60499954223633 -45.40599822998047,-39.60499954223633 C-45.40599822998047,-39.60499954223633 -45.40599822998047,-26.076000213623047 -45.40599822998047,-26.076000213623047 C-45.40599822998047,-26.076000213623047 30.152999877929688,39.60499954223633 30.152999877929688,39.60499954223633 C30.152999877929688,39.60499954223633 42.119998931884766,49.78900146484375 42.119998931884766,49.78900146484375 C42.119998931884766,49.78900146484375 44.3489990234375,45.99700164794922 45.40599822998047,39.33599853515625 C45.39799880981445,39.354000091552734 35.43199920654297,30.665000915527344 35.43199920654297,30.665000915527344z"></path></g></g><g style="display: block;" transform="matrix(2.859999895095825,0,0,2.859999895095825,107.72003173828125,-312.27996826171875)" opacity="1"><g opacity="1" transform="matrix(1,0,0,1,297.39300537109375,319.47900390625)"><path fill="rgb(255,255,255)" fill-opacity="1" d=" M39.81999969482422,-17.336999893188477 C39.81999969482422,-17.336999893188477 43.632999420166016,-14.02299976348877 43.632999420166016,-14.02299976348877 C40.10599899291992,-5.4019999504089355 30.829999923706055,1.402999997138977 22.773000717163086,5.934999942779541 C13.232999801635742,11.29800033569336 3.5269999504089355,14.565999984741211 0.019999999552965164,15.66100025177002 C-3.4639999866485596,14.576000213623047 -13.053000450134277,11.35200023651123 -22.57699966430664,6.019999980926514 C-31.70599937438965,0.9089999794960022 -42.388999938964844,-7.093999862670898 -44.625,-17.336999893188477 C-44.900001525878906,-18.600000381469727 -45.05500030517578,-19.89299964904785 -45.05500030517578,-21.22100067138672 C-45.05500030517578,-21.22100067138672 -45.05500030517578,-26.290000915527344 -45.05500030517578,-26.290000915527344 C-45.05500030517578,-26.290000915527344 -55.03099822998047,-17.618000030517578 -55.03099822998047,-17.618000030517578 C-55.01900100708008,-17.523000717163086 -55.000999450683594,-17.43199920654297 -54.987998962402344,-17.336999893188477 C-51.016998291015625,11.734000205993652 -3.4579999446868896,25.320999145507812 -1.3480000495910645,25.909000396728516 C-1.3480000495910645,25.909000396728516 0.02199999988079071,26.290000915527344 0.02199999988079071,26.290000915527344 C0.02199999988079071,26.290000915527344 1.3910000324249268,25.909000396728516 1.3910000324249268,25.909000396728516 C3.500999927520752,25.320999145507812 51.06100082397461,11.732999801635742 55.03099822998047,-17.336999893188477 C55.03099822998047,-17.336999893188477 39.81999969482422,-17.336999893188477 39.81999969482422,-17.336999893188477z"></path></g></g></g></g><g mask="url(#__lottie_element_90)" style="display: block;"><g transform="matrix(2.859999895095825,0,0,2.859999895095825,-669.7799682617188,-387.77996826171875)" opacity="1"><g opacity="1" transform="matrix(1,0,0,1,305.0150146484375,202.40699768066406)"><path fill="rgb(255,255,255)" fill-opacity="1" d=" M-7.63700008392334,-8.795999526977539 C-7.63700008392334,-8.795999526977539 28.15999984741211,22.323999404907227 28.15999984741211,22.323999404907227 C28.15999984741211,22.323999404907227 28.15999984741211,8.795000076293945 28.15999984741211,8.795000076293945 C28.15999984741211,8.795000076293945 -7.63700008392334,-22.323999404907227 -7.63700008392334,-22.323999404907227 C-7.63700008392334,-22.323999404907227 -28.15999984741211,-4.484000205993652 -28.15999984741211,-4.484000205993652 C-28.15999984741211,-4.484000205993652 -20.378999710083008,2.2820000648498535 -20.378999710083008,2.2820000648498535 C-20.378999710083008,2.2820000648498535 -7.63700008392334,-8.795999526977539 -7.63700008392334,-8.795999526977539z"></path></g></g></g><g mask="url(#__lottie_element_84)" style="display: block;"><g transform="matrix(2.859999895095825,0,0,2.859999895095825,-669.7799682617188,-387.77996826171875)" opacity="1"><g opacity="1" transform="matrix(1,0,0,1,307.48199462890625,158.6479949951172)"><path fill="rgb(255,255,255)" fill-opacity="1" d=" M-4.109000205993652,2.5889999866485596 C-4.109000205993652,2.5889999866485596 10.067000389099121,2.5889999866485596 10.067000389099121,2.5889999866485596 C10.067000389099121,2.5889999866485596 -10.067000389099121,-14.913000106811523 -10.067000389099121,-14.913000106811523 C-10.067000389099121,-14.913000106811523 -10.067000389099121,14.913000106811523 -10.067000389099121,14.913000106811523 C-10.067000389099121,14.913000106811523 10.067000389099121,14.913000106811523 10.067000389099121,14.913000106811523 C10.067000389099121,14.913000106811523 -4.109000205993652,2.5889999866485596 -4.109000205993652,2.5889999866485596z"></path></g></g></g><g mask="url(#__lottie_element_78)" style="display: none;"><g class="ai" clip-path="url(#__lottie_element_82)"><image width="596px" height="596px" preserveAspectRatio="xMidYMid slice" xlink:href="images/img_0.png"></image></g></g><g mask="url(#__lottie_element_72)" style="display: block;"><g filter="url(#__lottie_element_77)" transform="matrix(1,0,0,1,382.5,84.5)" opacity="0.35000000000000003"><g opacity="1" transform="matrix(1,0,0,1,0,0)"><path stroke-linecap="butt" stroke-linejoin="miter" fill-opacity="0" stroke-miterlimit="4" stroke="rgb(247,229,133)" stroke-opacity="1" stroke-width="164" d=" M-396,-586 C-396,-586 836,392 836,392"></path></g></g></g><g mask="url(#__lottie_element_66)" style="display: block;"><g filter="url(#__lottie_element_71)" transform="matrix(1,0,0,1,382.5,84.5)" opacity="0.35000000000000003"><g opacity="1" transform="matrix(1,0,0,1,0,0)"><path stroke-linecap="butt" stroke-linejoin="miter" fill-opacity="0" stroke-miterlimit="4" stroke="rgb(251,243,200)" stroke-opacity="1" stroke-width="25" d=" M-396,-586 C-396,-586 836,392 836,392"></path></g></g></g></g></svg>